<svg width="420" height="100" viewBox="0 0 420 100" fill="none" xmlns="http://www.w3.org/2000/svg">
<path d="M28 5L46 16V38L28 49L10 38V16L28 5Z" fill="#0A1628" stroke="#3B82F6" stroke-width="2"/>
<path d="M28 51L46 62V84L28 95L10 84V62L28 51Z" fill="#0A1628" stroke="#3B82F6" stroke-width="2"/>
<path d="M72 5L90 16V38L72 49L54 38V16L72 5Z" fill="#0A1628" stroke="#3B82F6" stroke-width="2"/>
<path d="M72 51L90 62V84L72 95L54 84V62L72 51Z" fill="#0A1628" stroke="#3B82F6" stroke-width="2"/>
<path d="M60 42H40C38.8954 42 38 42.8954 38 44V56C38 57.1046 38.8954 58 40 58H60C61.1046 58 62 57.1046 62 56V44C62 42.8954 61.1046 42 60 42Z" fill="#0A1628" stroke="#3B82F6" stroke-width="1.8"/>
<path d="M50 56C53.3137 56 56 53.3137 56 50C56 46.6863 53.3137 44 50 44C46.6863 44 44 46.6863 44 50C44 53.3137 46.6863 56 50 56Z" fill="#1E3A8A" stroke="#3B82F6" stroke-width="1.5"/>
<path d="M50 53.2C51.7673 53.2 53.2 51.7673 53.2 50C53.2 48.2327 51.7673 46.8 50 46.8C48.2327 46.8 46.8 48.2327 46.8 50C46.8 51.7673 48.2327 53.2 50 53.2Z" fill="#3B82F6"/>
<path d="M50 51.1C50.6075 51.1 51.1 50.6075 51.1 50C51.1 49.3925 50.6075 48.9 50 48.9C49.3925 48.9 48.9 49.3925 48.9 50C48.9 50.6075 49.3925 51.1 50 51.1Z" fill="#080C12"/>
<path d="M50 41.5V35" stroke="#3B82F6" stroke-width="1.6" stroke-linecap="round"/>
<path d="M55.6 44.7L61 39.1" stroke="#3B82F6" stroke-width="1.6" stroke-linecap="round"/>
<path d="M55.8 55.3L61.2 60.9" stroke="#3B82F6" stroke-width="1.6" stroke-linecap="round"/>
<path d="M50 58.5V65" stroke="#3B82F6" stroke-width="1.6" stroke-linecap="round"/>
<path d="M44.2 55.3L38.8 60.9" stroke="#3B82F6" stroke-width="1.6" stroke-linecap="round"/>
<path d="M44.4 44.7L39 39.1" stroke="#3B82F6" stroke-width="1.6" stroke-linecap="round"/>
<path d="M50 36C51.3807 36 52.5 34.8807 52.5 33.5C52.5 32.1193 51.3807 31 50 31C48.6193 31 47.5 32.1193 47.5 33.5C47.5 34.8807 48.6193 36 50 36Z" fill="white"/>
<path d="M62.2 40.9C63.5807 40.9 64.7 39.7807 64.7 38.4C64.7 37.0193 63.5807 35.9 62.2 35.9C60.8193 35.9 59.7 37.0193 59.7 38.4C59.7 39.7807 60.8193 40.9 62.2 40.9Z" fill="white"/>
<path d="M62.5 64.1C63.8807 64.1 65 62.9807 65 61.6C65 60.2193 63.8807 59.1 62.5 59.1C61.1193 59.1 60 60.2193 60 61.6C60 62.9807 61.1193 64.1 62.5 64.1Z" fill="white"/>
<path d="M50 69C51.3807 69 52.5 67.8807 52.5 66.5C52.5 65.1193 51.3807 64 50 64C48.6193 64 47.5 65.1193 47.5 66.5C47.5 67.8807 48.6193 69 50 69Z" fill="white"/>
<path d="M37.5 64.1C38.8807 64.1 40 62.9807 40 61.6C40 60.2193 38.8807 59.1 37.5 59.1C36.1193 59.1 35 60.2193 35 61.6C35 62.9807 36.1193 64.1 37.5 64.1Z" fill="white"/>
<path d="M37.8 40.9C39.1807 40.9 40.3 39.7807 40.3 38.4C40.3 37.0193 39.1807 35.9 37.8 35.9C36.4193 35.9 35.3 37.0193 35.3 38.4C35.3 39.7807 36.4193 40.9 37.8 40.9Z" fill="white"/>
<path d="M111.22 63V30.8H117.016V42.99H117.844C118.089 42.4993 118.473 42.0087 118.994 41.518C119.515 41.0273 120.205 40.6287 121.064 40.322C121.953 39.9847 123.073 39.816 124.422 39.816C126.201 39.816 127.749 40.23 129.068 41.058C130.417 41.8553 131.46 42.9747 132.196 44.416C132.932 45.8267 133.3 47.4827 133.3 49.384V63H127.504V49.844C127.504 48.1267 127.075 46.8387 126.216 45.98C125.388 45.1213 124.192 44.692 122.628 44.692C120.849 44.692 119.469 45.29 118.488 46.486C117.507 47.6513 117.016 49.292 117.016 51.408V63H111.22ZM149.962 63.644C147.692 63.644 145.684 63.1687 143.936 62.218C142.218 61.2367 140.869 59.872 139.888 58.124C138.937 56.3453 138.462 54.26 138.462 51.868V51.316C138.462 48.924 138.937 46.854 139.888 45.106C140.838 43.3273 142.172 41.9627 143.89 41.012C145.607 40.0307 147.6 39.54 149.87 39.54C152.108 39.54 154.056 40.046 155.712 41.058C157.368 42.0393 158.656 43.4193 159.576 45.198C160.496 46.946 160.956 48.9853 160.956 51.316V53.294H144.35C144.411 54.858 144.994 56.1307 146.098 57.112C147.202 58.0933 148.551 58.584 150.146 58.584C151.771 58.584 152.967 58.2313 153.734 57.526C154.5 56.8207 155.083 56.0387 155.482 55.18L160.22 57.664C159.79 58.4613 159.162 59.3353 158.334 60.286C157.536 61.206 156.463 62.0033 155.114 62.678C153.764 63.322 152.047 63.644 149.962 63.644ZM144.396 48.97H155.068C154.945 47.6513 154.408 46.5933 153.458 45.796C152.538 44.9987 151.326 44.6 149.824 44.6C148.26 44.6 147.018 44.9987 146.098 45.796C145.178 46.5933 144.61 47.6513 144.396 48.97ZM162.608 63L170.888 51.5L162.7 40.184H169.416L174.614 47.774H175.442L180.64 40.184H187.356L179.168 51.5L187.448 63H180.64L175.442 55.318H174.614L169.416 63H162.608ZM198.579 63.644C196.954 63.644 195.497 63.368 194.209 62.816C192.921 62.2333 191.894 61.4053 191.127 60.332C190.391 59.228 190.023 57.894 190.023 56.33C190.023 54.766 190.391 53.4627 191.127 52.42C191.894 51.3467 192.937 50.5493 194.255 50.028C195.605 49.476 197.138 49.2 198.855 49.2H205.111V47.912C205.111 46.8387 204.774 45.9647 204.099 45.29C203.425 44.5847 202.351 44.232 200.879 44.232C199.438 44.232 198.365 44.5693 197.659 45.244C196.954 45.888 196.494 46.7313 196.279 47.774L190.943 45.98C191.311 44.8147 191.894 43.7567 192.691 42.806C193.519 41.8247 194.608 41.0427 195.957 40.46C197.337 39.8467 199.009 39.54 200.971 39.54C203.977 39.54 206.353 40.2913 208.101 41.794C209.849 43.2967 210.723 45.474 210.723 48.326V56.836C210.723 57.756 211.153 58.216 212.011 58.216H213.851V63H209.987C208.853 63 207.917 62.724 207.181 62.172C206.445 61.62 206.077 60.884 206.077 59.964V59.918H205.203C205.081 60.286 204.805 60.7767 204.375 61.39C203.946 61.9727 203.271 62.494 202.351 62.954C201.431 63.414 200.174 63.644 198.579 63.644ZM199.591 58.952C201.217 58.952 202.535 58.5073 203.547 57.618C204.59 56.698 205.111 55.4867 205.111 53.984V53.524H199.269C198.196 53.524 197.353 53.754 196.739 54.214C196.126 54.674 195.819 55.318 195.819 56.146C195.819 56.974 196.141 57.6487 196.785 58.17C197.429 58.6913 198.365 58.952 199.591 58.952Z" fill="#F0F4FF"/>
<path d="M221.06 64L217.84 41.184H223.59L225.614 60.09H226.442L229.386 41.184H238.678L241.622 60.09H242.45L244.474 41.184H250.224L247.004 64H237.39L234.446 45.094H233.618L230.674 64H221.06ZM257.776 73.2V68.14H270.196C271.055 68.14 271.484 67.68 271.484 66.76V61.01H270.656C270.411 61.5313 270.028 62.0527 269.506 62.574C268.985 63.0953 268.28 63.5247 267.39 63.862C266.501 64.1993 265.366 64.368 263.986 64.368C262.208 64.368 260.644 63.9693 259.294 63.172C257.976 62.344 256.948 61.2093 256.212 59.768C255.476 58.3267 255.108 56.6707 255.108 54.8V41.184H260.904V54.34C260.904 56.0573 261.318 57.3453 262.146 58.204C263.005 59.0627 264.216 59.492 265.78 59.492C267.559 59.492 268.939 58.9093 269.92 57.744C270.902 56.548 271.392 54.892 271.392 52.776V41.184H277.188V68.048C277.188 69.612 276.728 70.854 275.808 71.774C274.888 72.7247 273.662 73.2 272.128 73.2H257.776ZM283.638 64V41.184H289.342V44.174H290.17C290.538 43.3767 291.228 42.6253 292.24 41.92C293.252 41.184 294.785 40.816 296.84 40.816C298.619 40.816 300.167 41.23 301.486 42.058C302.835 42.8553 303.878 43.9747 304.614 45.416C305.35 46.8267 305.718 48.4827 305.718 50.384V64H299.922V50.844C299.922 49.1267 299.493 47.8387 298.634 46.98C297.806 46.1213 296.61 45.692 295.046 45.692C293.267 45.692 291.887 46.29 290.906 47.486C289.925 48.6513 289.434 50.292 289.434 52.408V64H283.638Z" fill="#3B82F6"/>
</svg>
